<?xml version="1.0" encoding="UTF-8"?>
<svg xmlns="http://www.w3.org/2000/svg" xmlns:xlink="http://www.w3.org/1999/xlink" width="256pt" height="256pt" viewBox="0 0 256 256" version="1.1">
<g id="surface1">
<path style=" stroke:none;fill-rule:nonzero;fill:rgb(99.607843%,0%,0%);fill-opacity:1;" d="M 127.976562 0.03125 C 93.605469 0.03125 62.03125 13.128906 37.671875 37.484375 C 13.316406 61.839844 0.21875 93.417969 0.21875 127.789062 C 0.21875 162.160156 13.316406 193.734375 37.671875 218.089844 C 58.125 238.542969 83.6875 251.058594 112.617188 254.78125 C 123.976562 256.246094 141.390625 255.503906 153.804688 253.03125 C 198.496094 244.125 236.679688 209.507812 250.0625 165.765625 C 264.101562 119.871094 252.058594 71.261719 218.28125 37.484375 C 193.921875 13.128906 162.347656 0.03125 127.976562 0.03125 Z M 126.8125 10.050781 C 145.300781 9.882812 163.777344 14.070312 180.617188 22.507812 C 203.695312 34.070312 221.695312 52.066406 233.257812 75.148438 C 249.878906 108.324219 249.878906 147.253906 233.257812 180.429688 C 227.457031 192.003906 221.679688 200.144531 212.476562 209.703125 C 193.003906 229.929688 167.222656 242.261719 138.546875 245.0625 C 117.160156 247.152344 95.089844 242.964844 75.335938 233.066406 C 63.757812 227.269531 55.621094 221.492188 46.0625 212.289062 C 9.191406 176.796875 -0.304688 121.058594 22.695312 75.148438 C 36.523438 47.550781 60.273438 26.671875 89.363281 16.546875 C 101.507812 12.320312 114.164062 10.167969 126.8125 10.050781 Z M 126.8125 10.050781 "/>
<path style=" stroke:none;fill-rule:evenodd;fill:rgb(99.607843%,0%,0%);fill-opacity:1;" d="M 131.792969 126.417969 L 131.792969 194.039062 L 187.003906 159.617188 L 187.003906 91.996094 Z M 131.792969 126.417969 "/>
<path style=" stroke:none;fill-rule:evenodd;fill:rgb(99.607843%,0%,0%);fill-opacity:1;" d="M 90.167969 98.101562 L 146.972656 63.421875 L 128.191406 51.625 L 71.402344 86.308594 Z M 90.167969 98.101562 "/>
<path style=" stroke:none;fill-rule:evenodd;fill:rgb(99.607843%,0%,0%);fill-opacity:1;" d="M 185.546875 87.648438 L 163.175781 73.597656 L 106.375 108.285156 L 128.757812 122.347656 Z M 185.546875 87.648438 "/>
<path style=" stroke:none;fill-rule:evenodd;fill:rgb(99.607843%,0%,0%);fill-opacity:1;" d="M 125.527344 126.417969 L 106.210938 114.375 L 106.226562 137.378906 L 90.183594 127.097656 L 90.164062 104.371094 L 70.320312 91.996094 L 70.320312 159.617188 L 125.527344 194.039062 Z M 125.527344 126.417969 "/>
</g>
</svg>
